<?xml version="1.0" encoding="UTF-8"?>
<svg id="Layer_1" data-name="Layer 1" xmlns="http://www.w3.org/2000/svg" viewBox="0 0 64 64">
  <defs>
    <style>
      .cls-1 {
        fill: #fff;
      }
    </style>
  </defs>
  <rect x="0" width="64" height="64"/>
  <g>
    <g>
      <path class="cls-1" d="M30.98,11.95c0-.61,1.02-2.19,1.02-2.19,0,0,1.02,1.58,1.02,2.19s-.45,1.1-1.02,1.1c-.56,0-1.02-.49-1.02-1.1Z"/>
      <path class="cls-1" d="M38.34,11.95c0-.61,1.02-2.19,1.02-2.19,0,0,1.02,1.58,1.02,2.19s-.45,1.1-1.02,1.1c-.56,0-1.02-.49-1.02-1.1Z"/>
      <path class="cls-1" d="M44.97,11.95c0-.61,1.02-2.19,1.02-2.19,0,0,1.02,1.58,1.02,2.19s-.45,1.1-1.02,1.1c-.56,0-1.02-.49-1.02-1.1Z"/>
      <path class="cls-1" d="M51.6,11.95c0-.61,1.02-2.19,1.02-2.19,0,0,1.02,1.58,1.02,2.19s-.45,1.1-1.02,1.1c-.56,0-1.02-.49-1.02-1.1Z"/>
      <path class="cls-1" d="M23.58,11.95c0-.61,1.02-2.19,1.02-2.19,0,0,1.02,1.58,1.02,2.19s-.45,1.1-1.02,1.1c-.56,0-1.02-.49-1.02-1.1Z"/>
      <path class="cls-1" d="M16.96,11.95c0-.61,1.02-2.19,1.02-2.19,0,0,1.02,1.58,1.02,2.19s-.45,1.1-1.02,1.1c-.56,0-1.02-.49-1.02-1.1Z"/>
      <path class="cls-1" d="M10.37,11.95c0-.61,1.02-2.19,1.02-2.19,0,0,1.02,1.58,1.02,2.19s-.45,1.1-1.02,1.1c-.56,0-1.02-.49-1.02-1.1Z"/>
    </g>
    <path class="cls-1" d="M32,14.8h2.2s0,1.98,0,1.98h-.6s0,5.35,0,5.35c2.34-.69,4.07-2.81,4.13-5.35h-.53v-1.98h4.41v1.98h-.66s0,0,0,0c-.06,4.33-3.21,7.91-7.33,8.66v2.23c5.64-.73,10.1-5.23,10.76-10.89h-.56v-1.98h4.43v1.98h-.63c-.69,7.44-6.58,13.39-14,14.14v2.22c8.92-.74,16.12-7.6,17.38-16.37h-.59s0-1.98,0-1.98h4.43v1.98h-.6c-1.29,10.54-9.94,18.82-20.63,19.59v2.61s0,12.07,0,12.07h10.2v3.2h-11.81s-11.81,0-11.81,0v-3.2h10.2v-12.07s0-2.61,0-2.61c-10.69-.76-19.34-9.05-20.63-19.59h-.6s0-1.98,0-1.98h4.43v1.98h-.59c1.26,8.76,8.47,15.62,17.38,16.37v-2.22c-7.41-.76-13.31-6.71-14-14.14h-.63v-1.98h4.43v1.98h-.56c.66,5.66,5.13,10.16,10.76,10.89v-2.23c-4.13-.75-7.27-4.33-7.33-8.66,0,0,0,0,0,0h-.66v-1.98h4.41v1.98h-.53c.06,2.54,1.79,4.66,4.13,5.35v-5.35h-.6v-1.98h2.2Z"/>
  </g>
</svg>